<?xml version="1.0" standalone="no"?>
<!DOCTYPE svg PUBLIC "-//W3C//DTD SVG 20010904//EN"
 "http://www.w3.org/TR/2001/REC-SVG-20010904/DTD/svg10.dtd">
<svg version="1.0" xmlns="http://www.w3.org/2000/svg"
 width="1215.000000pt" height="1280.000000pt" viewBox="0 0 1215.000000 1280.000000"
 preserveAspectRatio="xMidYMid meet">
<g transform="translate(0.000000,1280.000000) scale(0.100000,-0.100000)"
fill="#000000" stroke="none">
<path d="M3840 12793 c-14 -3 -29 -8 -33 -13 -21 -19 307 -666 956 -1885 137
-258 411 -776 607 -1150 196 -374 415 -788 485 -920 322 -605 547 -1005 565
-1005 10 0 43 39 88 104 18 26 36 44 41 41 5 -3 31 -42 56 -88 113 -197 158
-267 171 -267 20 0 267 377 693 1060 205 327 379 596 387 598 60 14 372 -206
616 -435 640 -597 1036 -1363 1160 -2239 19 -137 22 -202 23 -479 0 -325 -4
-381 -46 -640 -134 -814 -570 -1606 -1186 -2156 -213 -190 -374 -310 -593
-441 -674 -404 -1473 -591 -2237 -523 -175 15 -169 14 -349 45 -319 54 -660
163 -967 308 -136 65 -192 101 -344 218 -620 484 -1085 1168 -1302 1920 -142
489 -184 1013 -121 1504 79 611 310 1201 664 1695 43 61 80 115 83 121 7 19
-207 266 -386 444 -252 251 -477 426 -741 574 -58 33 -136 80 -175 106 -198
131 -485 269 -688 331 l-57 17 -56 -75 c-609 -823 -1000 -1822 -1109 -2829
-41 -380 -53 -675 -35 -865 5 -57 14 -167 20 -244 145 -1794 1099 -3411 2610
-4422 115 -77 463 -289 690 -420 724 -420 1577 -683 2435 -753 77 -6 187 -15
244 -20 201 -19 461 -8 881 35 1255 131 2465 688 3395 1565 1058 997 1705
2325 1830 3755 8 99 20 230 25 291 13 141 13 325 0 472 -33 390 -43 481 -61
607 -137 951 -515 1860 -1094 2630 -186 247 -317 398 -555 636 -387 387 -708
637 -1209 939 -173 104 -226 141 -225 156 0 10 110 192 244 404 453 717 530
844 514 860 -5 5 -98 16 -206 24 -109 8 -202 17 -208 21 -7 4 4 33 30 79 22
41 40 78 40 83 0 30 -805 70 -2620 133 -157 5 -573 21 -925 34 -352 14 -797
30 -990 36 -192 6 -428 15 -523 20 -172 10 -464 11 -512 3z"/>
</g>
</svg>
